%TF.GenerationSoftware,KiCad,Pcbnew,(6.0.11-0)*%
%TF.CreationDate,2023-01-30T23:51:34+08:00*%
%TF.ProjectId,led_stick,6c65645f-7374-4696-936b-2e6b69636164,rev?*%
%TF.SameCoordinates,Original*%
%TF.FileFunction,Soldermask,Bot*%
%TF.FilePolarity,Negative*%
%FSLAX46Y46*%
G04 Gerber Fmt 4.6, Leading zero omitted, Abs format (unit mm)*
G04 Created by KiCad (PCBNEW (6.0.11-0)) date 2023-01-30 23:51:34*
%MOMM*%
%LPD*%
G01*
G04 APERTURE LIST*
%ADD10R,1.600000X1.600000*%
%ADD11O,1.600000X1.600000*%
%ADD12C,2.000000*%
%ADD13C,1.700000*%
%ADD14C,1.600000*%
%ADD15R,1.800000X1.800000*%
%ADD16C,1.800000*%
%ADD17C,3.650000*%
%ADD18R,2.170000X2.170000*%
%ADD19C,2.170000*%
G04 APERTURE END LIST*
D10*
%TO.C,U2*%
X77978000Y-94879000D03*
D11*
X77978000Y-97419000D03*
X77978000Y-99959000D03*
X77978000Y-102499000D03*
X85598000Y-102499000D03*
X85598000Y-99959000D03*
X85598000Y-97419000D03*
X85598000Y-94879000D03*
%TD*%
D10*
%TO.C,U1*%
X107442000Y-93355000D03*
D11*
X107442000Y-95895000D03*
X107442000Y-98435000D03*
X107442000Y-100975000D03*
X115062000Y-100975000D03*
X115062000Y-98435000D03*
X115062000Y-95895000D03*
X115062000Y-93355000D03*
%TD*%
D12*
%TO.C,SW1*%
X188497500Y-93017500D03*
X194497500Y-105017500D03*
X188497500Y-105017500D03*
X194497500Y-93017500D03*
D13*
X190247500Y-103017500D03*
X190247500Y-99017500D03*
X190247500Y-95017500D03*
%TD*%
D14*
%TO.C,R5*%
X112522000Y-109855000D03*
D11*
X97282000Y-109855000D03*
%TD*%
D14*
%TO.C,R4*%
X93218000Y-108839000D03*
D11*
X93218000Y-93599000D03*
%TD*%
D14*
%TO.C,R3*%
X88138000Y-108839000D03*
D11*
X72898000Y-108839000D03*
%TD*%
D14*
%TO.C,R2*%
X120142000Y-94615000D03*
D11*
X120142000Y-109855000D03*
%TD*%
D14*
%TO.C,R1*%
X120777000Y-88265000D03*
D11*
X105537000Y-88265000D03*
%TD*%
D15*
%TO.C,D8*%
X40767000Y-106680000D03*
D16*
X43307000Y-106680000D03*
%TD*%
D15*
%TO.C,D7*%
X48260000Y-106680000D03*
D16*
X50800000Y-106680000D03*
%TD*%
D15*
%TO.C,D6*%
X55880000Y-106680000D03*
D16*
X58420000Y-106680000D03*
%TD*%
D15*
%TO.C,D5*%
X63500000Y-106680000D03*
D16*
X66040000Y-106680000D03*
%TD*%
D15*
%TO.C,D4*%
X63500000Y-96520000D03*
D16*
X66040000Y-96520000D03*
%TD*%
D15*
%TO.C,D3*%
X55880000Y-96520000D03*
D16*
X58420000Y-96520000D03*
%TD*%
D15*
%TO.C,D2*%
X48260000Y-96520000D03*
D16*
X50800000Y-96520000D03*
%TD*%
D15*
%TO.C,D1*%
X40640000Y-96520000D03*
D16*
X43180000Y-96520000D03*
%TD*%
D10*
%TO.C,C2*%
X72013000Y-97043732D03*
D14*
X72013000Y-95043732D03*
%TD*%
D10*
%TO.C,C1*%
X99822000Y-94615000D03*
D14*
X99822000Y-92615000D03*
%TD*%
D17*
%TO.C,BT1*%
X155700000Y-101590000D03*
D18*
X129540000Y-94960000D03*
D19*
X129540000Y-108550000D03*
%TD*%
M02*
