%TF.GenerationSoftware,KiCad,Pcbnew,(6.0.11-0)*%
%TF.CreationDate,2023-01-30T23:51:33+08:00*%
%TF.ProjectId,led_stick,6c65645f-7374-4696-936b-2e6b69636164,rev?*%
%TF.SameCoordinates,Original*%
%TF.FileFunction,Copper,L1,Top*%
%TF.FilePolarity,Positive*%
%FSLAX46Y46*%
G04 Gerber Fmt 4.6, Leading zero omitted, Abs format (unit mm)*
G04 Created by KiCad (PCBNEW (6.0.11-0)) date 2023-01-30 23:51:33*
%MOMM*%
%LPD*%
G01*
G04 APERTURE LIST*
%TA.AperFunction,ComponentPad*%
%ADD10R,1.600000X1.600000*%
%TD*%
%TA.AperFunction,ComponentPad*%
%ADD11O,1.600000X1.600000*%
%TD*%
%TA.AperFunction,ComponentPad*%
%ADD12C,2.000000*%
%TD*%
%TA.AperFunction,ComponentPad*%
%ADD13C,1.700000*%
%TD*%
%TA.AperFunction,ComponentPad*%
%ADD14C,1.600000*%
%TD*%
%TA.AperFunction,ComponentPad*%
%ADD15R,1.800000X1.800000*%
%TD*%
%TA.AperFunction,ComponentPad*%
%ADD16C,1.800000*%
%TD*%
%TA.AperFunction,ComponentPad*%
%ADD17R,2.170000X2.170000*%
%TD*%
%TA.AperFunction,ComponentPad*%
%ADD18C,2.170000*%
%TD*%
G04 APERTURE END LIST*
D10*
%TO.P,U2,1,GND*%
%TO.N,GND*%
X77978000Y-94879000D03*
D11*
%TO.P,U2,2,TR*%
%TO.N,Net-(C2-Pad1)*%
X77978000Y-97419000D03*
%TO.P,U2,3,Q*%
%TO.N,Net-(D1-Pad1)*%
X77978000Y-99959000D03*
%TO.P,U2,4,R*%
%TO.N,VCC*%
X77978000Y-102499000D03*
%TO.P,U2,5,CV*%
%TO.N,unconnected-(U2-Pad5)*%
X85598000Y-102499000D03*
%TO.P,U2,6,THR*%
%TO.N,Net-(C2-Pad1)*%
X85598000Y-99959000D03*
%TO.P,U2,7,DIS*%
%TO.N,Net-(R3-Pad1)*%
X85598000Y-97419000D03*
%TO.P,U2,8,VCC*%
%TO.N,VCC*%
X85598000Y-94879000D03*
%TD*%
D10*
%TO.P,U1,1,GND*%
%TO.N,GND*%
X107442000Y-93355000D03*
D11*
%TO.P,U1,2,TR*%
%TO.N,Net-(C1-Pad1)*%
X107442000Y-95895000D03*
%TO.P,U1,3,Q*%
%TO.N,Net-(R5-Pad1)*%
X107442000Y-98435000D03*
%TO.P,U1,4,R*%
%TO.N,VCC*%
X107442000Y-100975000D03*
%TO.P,U1,5,CV*%
%TO.N,unconnected-(U1-Pad5)*%
X115062000Y-100975000D03*
%TO.P,U1,6,THR*%
%TO.N,Net-(C1-Pad1)*%
X115062000Y-98435000D03*
%TO.P,U1,7,DIS*%
%TO.N,Net-(R1-Pad1)*%
X115062000Y-95895000D03*
%TO.P,U1,8,VCC*%
%TO.N,VCC*%
X115062000Y-93355000D03*
%TD*%
D12*
%TO.P,SW1,*%
%TO.N,*%
X188497500Y-93017500D03*
X194497500Y-105017500D03*
X188497500Y-105017500D03*
X194497500Y-93017500D03*
D13*
%TO.P,SW1,1,A*%
%TO.N,Net-(BT1-Pad1)*%
X190247500Y-103017500D03*
%TO.P,SW1,2,B*%
%TO.N,VCC*%
X190247500Y-99017500D03*
%TO.P,SW1,3*%
%TO.N,N/C*%
X190247500Y-95017500D03*
%TD*%
D14*
%TO.P,R5,1*%
%TO.N,Net-(R5-Pad1)*%
X112522000Y-109855000D03*
D11*
%TO.P,R5,2*%
%TO.N,Net-(D1-Pad2)*%
X97282000Y-109855000D03*
%TD*%
D14*
%TO.P,R4,1*%
%TO.N,Net-(R3-Pad1)*%
X93218000Y-108839000D03*
D11*
%TO.P,R4,2*%
%TO.N,Net-(C2-Pad1)*%
X93218000Y-93599000D03*
%TD*%
D14*
%TO.P,R3,1*%
%TO.N,Net-(R3-Pad1)*%
X88138000Y-108839000D03*
D11*
%TO.P,R3,2*%
%TO.N,VCC*%
X72898000Y-108839000D03*
%TD*%
D14*
%TO.P,R2,1*%
%TO.N,Net-(R1-Pad1)*%
X120142000Y-94615000D03*
D11*
%TO.P,R2,2*%
%TO.N,Net-(C1-Pad1)*%
X120142000Y-109855000D03*
%TD*%
D14*
%TO.P,R1,1*%
%TO.N,Net-(R1-Pad1)*%
X120777000Y-88265000D03*
D11*
%TO.P,R1,2*%
%TO.N,VCC*%
X105537000Y-88265000D03*
%TD*%
D15*
%TO.P,D8,1,K*%
%TO.N,Net-(D1-Pad2)*%
X40767000Y-106680000D03*
D16*
%TO.P,D8,2,A*%
%TO.N,Net-(D1-Pad1)*%
X43307000Y-106680000D03*
%TD*%
D15*
%TO.P,D7,1,K*%
%TO.N,Net-(D1-Pad2)*%
X48260000Y-106680000D03*
D16*
%TO.P,D7,2,A*%
%TO.N,Net-(D1-Pad1)*%
X50800000Y-106680000D03*
%TD*%
D15*
%TO.P,D6,1,K*%
%TO.N,Net-(D1-Pad1)*%
X55880000Y-106680000D03*
D16*
%TO.P,D6,2,A*%
%TO.N,Net-(D1-Pad2)*%
X58420000Y-106680000D03*
%TD*%
D15*
%TO.P,D5,1,K*%
%TO.N,Net-(D1-Pad1)*%
X63500000Y-106680000D03*
D16*
%TO.P,D5,2,A*%
%TO.N,Net-(D1-Pad2)*%
X66040000Y-106680000D03*
%TD*%
D15*
%TO.P,D4,1,K*%
%TO.N,Net-(D1-Pad2)*%
X63500000Y-96520000D03*
D16*
%TO.P,D4,2,A*%
%TO.N,Net-(D1-Pad1)*%
X66040000Y-96520000D03*
%TD*%
D15*
%TO.P,D3,1,K*%
%TO.N,Net-(D1-Pad2)*%
X55880000Y-96520000D03*
D16*
%TO.P,D3,2,A*%
%TO.N,Net-(D1-Pad1)*%
X58420000Y-96520000D03*
%TD*%
D15*
%TO.P,D2,1,K*%
%TO.N,Net-(D1-Pad1)*%
X48260000Y-96520000D03*
D16*
%TO.P,D2,2,A*%
%TO.N,Net-(D1-Pad2)*%
X50800000Y-96520000D03*
%TD*%
D15*
%TO.P,D1,1,K*%
%TO.N,Net-(D1-Pad1)*%
X40640000Y-96520000D03*
D16*
%TO.P,D1,2,A*%
%TO.N,Net-(D1-Pad2)*%
X43180000Y-96520000D03*
%TD*%
D10*
%TO.P,C2,1*%
%TO.N,Net-(C2-Pad1)*%
X72013000Y-97043732D03*
D14*
%TO.P,C2,2*%
%TO.N,GND*%
X72013000Y-95043732D03*
%TD*%
D10*
%TO.P,C1,1*%
%TO.N,Net-(C1-Pad1)*%
X99822000Y-94615000D03*
D14*
%TO.P,C1,2*%
%TO.N,GND*%
X99822000Y-92615000D03*
%TD*%
D17*
%TO.P,BT1,1,+*%
%TO.N,Net-(BT1-Pad1)*%
X129540000Y-94960000D03*
D18*
%TO.P,BT1,2,-*%
%TO.N,GND*%
X129540000Y-108550000D03*
%TD*%
M02*
