M48
; DRILL file {KiCad (6.0.11-0)} date Monday, 30 January 2023 at 23:52:02
; FORMAT={-:-/ absolute / inch / decimal}
; #@! TF.CreationDate,2023-01-30T23:52:02+08:00
; #@! TF.GenerationSoftware,Kicad,Pcbnew,(6.0.11-0)
; #@! TF.FileFunction,Plated,1,2,PTH
FMAT,2
INCH
; #@! TA.AperFunction,Plated,PTH,ComponentDrill
T1C0.0315
; #@! TA.AperFunction,Plated,PTH,ComponentDrill
T2C0.0354
; #@! TA.AperFunction,Plated,PTH,ComponentDrill
T3C0.0461
; #@! TA.AperFunction,Plated,PTH,ComponentDrill
T4C0.0472
%
G90
G05
T1
X2.8352Y-3.7419
X2.8352Y-3.8206
X2.87Y-4.285
X3.07Y-3.7354
X3.07Y-3.8354
X3.07Y-3.9354
X3.07Y-4.0354
X3.37Y-3.7354
X3.37Y-3.8354
X3.37Y-3.9354
X3.37Y-4.0354
X3.47Y-4.285
X3.67Y-3.685
X3.67Y-4.285
X3.83Y-4.325
X3.93Y-3.6463
X3.93Y-3.725
X4.155Y-3.475
X4.23Y-3.6754
X4.23Y-3.7754
X4.23Y-3.8754
X4.23Y-3.9754
X4.43Y-4.325
X4.53Y-3.6754
X4.53Y-3.7754
X4.53Y-3.8754
X4.53Y-3.9754
X4.73Y-3.725
X4.73Y-4.325
X4.755Y-3.475
T2
X1.6Y-3.8
X1.605Y-4.2
X1.7Y-3.8
X1.705Y-4.2
X1.9Y-3.8
X1.9Y-4.2
X2.0Y-3.8
X2.0Y-4.2
X2.2Y-3.8
X2.2Y-4.2
X2.3Y-3.8
X2.3Y-4.2
X2.5Y-3.8
X2.5Y-4.2
X2.6Y-3.8
X2.6Y-4.2
X7.4901Y-3.7408
X7.4901Y-3.8983
X7.4901Y-4.0558
T3
X5.1Y-3.7386
X5.1Y-4.2736
T4
X7.4212Y-3.6621
X7.4212Y-4.1345
X7.6574Y-3.6621
X7.6574Y-4.1345
T0
M30
